<svg width="128" height="128" viewBox="0 0 128 128" fill="none" xmlns="http://www.w3.org/2000/svg">
<g clip-path="url(#clip0_3537_30)">
<path d="M104.736 113.471C104.393 113.716 104 113.961 103.657 114.206C103.265 114.451 102.922 114.696 102.53 114.892C102.187 115.088 101.893 115.284 101.549 115.48C101.5 115.529 101.451 115.529 101.402 115.578C100.275 116.265 99.0984 116.902 97.9219 117.49C97.5788 117.686 97.1866 117.882 96.8435 118.029C96.8435 118.029 96.7945 118.078 96.7455 118.078L95.569 118.667C94.7847 119.059 93.9513 119.402 93.167 119.745C92.7749 119.941 92.3337 120.088 91.9415 120.235C91.5494 120.382 91.1082 120.578 90.7161 120.726C90.3239 120.873 89.8827 121.069 89.4906 121.216H89.4415C89.0494 121.363 88.6082 121.51 88.2161 121.657C87.3337 121.951 86.4023 122.245 85.52 122.539C85.2259 122.637 84.8827 122.735 84.5886 122.833C83.6572 123.127 82.7259 123.373 81.7945 123.569C81.4514 123.667 81.1082 123.716 80.7161 123.814C79.8337 124.01 78.9023 124.206 78.02 124.402C77.8239 124.451 77.6768 124.451 77.4808 124.5C77.1866 124.549 76.8435 124.598 76.5494 124.647C76.1082 124.696 75.7161 124.794 75.2749 124.843C75.0788 124.892 74.8827 124.892 74.6866 124.941C74.4415 124.99 74.1474 125.039 73.8533 125.039C73.069 125.137 72.2357 125.235 71.4514 125.333C71.2063 125.382 70.9121 125.382 70.667 125.431H70.618C70.2749 125.48 69.9317 125.48 69.5886 125.529C69.2455 125.578 68.9023 125.578 68.5592 125.578C68.3631 125.578 68.118 125.627 67.9219 125.627C67.5298 125.627 67.1866 125.677 66.8435 125.677C66.3533 125.677 65.9121 125.726 65.4219 125.726H62.971C42.2847 125.431 23.7063 116.657 10.4219 102.735C10.4219 102.735 10.4219 102.686 10.3729 102.686C8.90234 101.363 10.1768 94.304 16.1082 89.8432C23.5592 84.2059 41.4023 80.6765 41.4023 80.6765C41.4023 80.6765 48.3141 79.5491 73.9514 84.8922C88.9514 88.0295 100.373 92.5883 106.745 104.941C108.069 107.49 109.393 111.412 104.736 113.471Z" fill="white"/>
<path d="M74.0982 84.3529C83.51 86.2647 93.559 88.3235 101.304 94.549C103.902 96.6569 105.618 99.7451 107.039 102.735C107.726 104.206 108.412 105.725 108.951 107.343C109.245 108.422 109.686 109.647 109.441 110.922C109.392 111.265 109.098 111.706 108.853 111.951C107.726 113.078 106.5 113.765 105.275 114.647C98.0688 119.647 89.7845 123.176 81.2061 125.039C62.0884 129.206 41.4022 125.971 24.5884 115.922C19.0002 112.539 13.8531 108.422 9.44137 103.569C8.95117 102.98 8.95117 102 8.95117 101.363C9.00019 99.8921 9.39235 98.4706 9.88254 97.1471C11.059 94.1078 12.5786 91.0686 15.1767 88.9608C17.0394 87.6863 19.0492 86.6078 21.108 85.7255C27.5786 82.9804 34.3923 81.0686 41.4022 80.2843C41.9904 80.2353 42.0884 81.0686 41.5002 81.1667C34.7845 82.5392 28.1178 84.598 21.8923 87.3921C19.6374 88.5196 17.2355 89.5 15.4218 91.2647C13.7061 93.1274 12.4806 95.4314 11.5002 97.7843C10.8629 99.2059 10.4218 101.461 10.6178 102.588C13.7061 106.265 17.3335 109.5 21.2551 112.294C42.7257 127.294 75.3237 128.275 98.1669 115.775C100.226 114.647 102.235 113.373 104.147 112.049C105.079 111.412 106.059 110.873 106.794 110.137C106.843 110.088 106.794 110.137 106.794 110.186C106.794 110.235 106.745 110.284 106.745 110.284C106.794 109.696 106.598 108.912 106.353 108.127C105.471 105.284 104.049 102.294 102.53 99.6961C100.128 95.8235 96.059 93.3725 91.9414 91.4118C89.0982 90.0882 86.108 89.0588 83.0688 88.0784C80.0296 87.098 76.9414 86.2647 73.8531 85.5294C73.0688 85.3333 73.3139 84.2059 74.0982 84.3529Z" fill="black"/>
<path d="M42.2355 84.6961C40.7159 84.8432 39.0983 85.1863 37.7257 85.9706C37.5786 86.0687 37.3826 85.8236 37.5296 85.7255C38.8041 84.5981 40.4218 83.9608 41.9904 83.4706C42.3335 83.3726 42.6767 83.5687 42.7257 83.9118C42.8728 84.3039 42.6277 84.6961 42.2355 84.6961ZM46.1571 90.9706C44.3924 91.3628 42.6767 92.1961 41.2551 93.3726C40.1277 93.5686 42.9708 91.2647 43.1669 91.1667C44.0002 90.5785 44.8335 90.1373 45.8139 89.7451C46.1081 89.6471 46.5002 89.7941 46.5982 90.0883C46.7943 90.5294 46.5492 90.9216 46.1571 90.9706ZM52.4801 97.2451C51.0585 98.3726 49.8331 99.8922 49.0487 101.559C48.9997 101.657 48.8527 101.706 48.7546 101.657C48.6566 101.608 48.6076 101.51 48.6566 101.412C48.9507 100.48 49.3429 99.549 49.8821 98.7157C50.4213 97.8334 51.0095 97.049 51.6958 96.3137C51.9409 96.0686 52.3331 96.0686 52.5782 96.3137C52.8233 96.5588 52.8232 97.049 52.4801 97.2451ZM63.0688 102.098C62.2355 103.863 61.5982 105.775 61.5002 107.735C61.5002 108.078 60.912 108.078 60.912 107.735C60.8139 106.167 61.059 104.598 61.5002 103.127C61.7453 102.539 61.7943 100.971 62.7747 101.265C63.0688 101.363 63.2159 101.755 63.0688 102.098ZM74.2938 102.294C74.588 102.98 76.8429 108.471 75.7644 108.52C75.6174 108.52 75.4703 108.422 75.4703 108.275C75.4213 107.784 75.2742 107.343 75.0782 106.853C74.588 105.48 73.9017 104.108 73.1664 102.833C72.8233 102.098 73.9507 101.51 74.2938 102.294ZM78.9512 91.4608C80.7649 91.8039 82.2845 92.8824 83.412 94.2549C83.461 94.3039 83.461 94.451 83.412 94.5C83.363 94.549 83.2649 94.549 83.1669 94.5C81.9904 93.4706 80.4218 92.7353 78.8532 92.6863C77.9218 92.6373 78.0688 91.3137 78.9512 91.4608ZM77.1865 85.7255C78.7061 86.1177 80.1277 86.7549 81.2551 87.8334C81.3532 87.9314 81.3532 88.0785 81.2551 88.1765C81.1571 88.2745 81.059 88.2745 80.961 88.2255C79.7845 87.4412 78.363 87.049 76.9904 86.951C76.1081 86.853 76.3041 85.5294 77.1865 85.7255ZM78.9512 98.3726C80.3237 99.5 81.6963 100.676 82.5786 102.245C82.6277 102.294 82.5786 102.392 82.5296 102.441C82.4806 102.49 82.3826 102.441 82.3335 102.392C81.2551 101.069 79.7845 100.186 78.3139 99.353C77.5296 98.9608 78.2159 97.8334 78.9512 98.3726Z" fill="black"/>
<path d="M78.7057 97.3921C77.6763 102.441 71.0096 105.48 59.7841 100.922C48.1175 96.2157 43.0685 84.9902 41.7939 81.6568C48.7057 68.7157 43.9018 59.7451 43.9018 59.7451C59.8332 58.3725 73.7547 77 73.7547 77L75.9116 86.2157C76.1077 87 76.4998 87.6863 77.0881 88.1765C78.1175 89.9902 79.343 94.1568 78.7057 97.3921Z" fill="white"/>
<path d="M41.5489 81.8039C42.4803 80.3824 43.0685 78.7157 43.4607 77.098C44.196 73.7157 44.4411 70.2843 44.4901 66.8529V65.5784C44.343 64.3039 43.9019 62.9804 43.4117 61.8039C42.7744 60.2353 45.0783 59.2549 45.8136 60.8235C45.9117 61.0196 45.9117 61.3628 45.9117 61.5588C46.0587 68.2255 46.3528 76.8039 42.1371 82.3431C41.843 82.6373 41.2548 82.1961 41.5489 81.8039ZM74.294 76.902C75.0293 77.3431 75.2744 77.9314 75.3724 78.5196C75.6666 79.6961 75.5685 80.9706 75.8626 82.1961C76.1077 83.3726 76.843 84.5 77.0391 85.7255C77.2842 87 78.0195 89.6961 78.3136 91.0196C78.4117 91.3137 78.2156 91.6569 77.8724 91.7059C77.6764 91.7549 77.5293 91.7059 77.3822 91.6079C76.745 91.0686 76.4509 90.5294 76.0587 89.8431C75.4215 88.6667 74.9803 87.5882 74.5881 86.2647C74.245 85.0882 74.3921 83.8137 74.0979 82.5882C73.8528 81.4118 73.1666 80.2843 72.9215 79.0588C72.7744 78.4706 72.7254 77.8333 73.1666 77.098C73.4607 76.8039 73.9509 76.7059 74.294 76.902Z" fill="black"/>
<path d="M77.8231 89.8432C68.4603 89.353 60.8133 86.4118 53.3623 73.1275C59.6368 78.6667 67.0388 80.7746 74.8329 81.7549L75.8623 86.2648C76.0584 87.0491 77.2348 89.353 77.8231 89.8432Z" fill="black"/>
<path d="M77.432 88.0294C79.0986 91.1666 80.079 95.0882 79.0496 98.5686C78.2653 101.02 76.0104 102.833 73.5594 103.52C67.8731 105.039 61.3045 102.637 56.2555 99.9412C50.03 96.4608 45.4221 90.6274 42.481 84.2549C42.2849 83.7647 42.9712 83.3725 43.2653 83.8627C44.2947 85.9215 45.4712 87.9313 46.7947 89.7451C48.1182 91.6078 49.6378 93.3235 51.3535 94.8431C56.3535 99.3529 63.1182 102.147 69.8829 102.147C76.8437 101.951 79.4908 98.2745 77.8731 91.5098C77.628 90.4314 77.2359 89.3039 76.6967 88.3725C76.4025 87.9804 77.1378 87.5392 77.432 88.0294Z" fill="black"/>
<path d="M96.4024 29.1569C97.2847 33.2745 95.569 35.1373 95.569 46.1667C95.569 51.7059 96.0592 55.2353 94.4416 61.951C93.7063 65.0392 91.4024 68.8137 89.8337 71.6569C88.2651 74.5 89.2945 79.2549 86.6475 81.4608C78.7063 88.0785 69.0985 86.2157 60.373 80.6275C60.0298 80.4314 58.1181 78.1765 57.5298 77.7353C55.52 76.2157 52.1867 74.5981 51.2063 73.6177C48.4612 70.9216 50.52 66.1667 48.8534 63.3726C46.6965 59.7941 44.0984 62.6863 41.3043 59.5981C37.4318 55.3824 32.7749 46.902 35.0788 31.902C38.8043 7.58826 58.069 4.74512 72.3337 7.4412C86.6965 10.1863 94.0494 18.3236 96.4024 29.1569Z" fill="white"/>
<path d="M43.7548 63.9608C42.6273 62.0981 41.2057 60.4804 39.8822 58.7157C37.9214 56.0196 36.4508 53.0294 35.4704 49.8922C31.2548 36.4118 33.5587 18.8628 46.1077 10.5294C57.5783 2.78433 79.8822 5.23531 89.8332 14.7941C94.2449 18.7647 98.5097 27.049 97.5783 33.0294C96.7449 37.2941 96.0097 41.5098 96.1567 45.8726C96.1567 48.0294 96.4018 50.1863 96.4018 52.3922C96.5489 56.8039 95.7646 61.2647 94.0979 65.3824C93.2646 67.4412 92.2351 69.402 91.1077 71.3137C90.9116 71.6079 90.7646 72.049 90.6665 72.5883C90.2744 74.1569 90.0783 75.7255 89.7351 77.3432C89.343 79.0588 88.9018 81.0196 87.4312 82.2941C83.3626 85.5785 77.9214 86.5588 72.8724 86.1667C69.343 85.8726 65.9116 84.9412 62.7253 83.4216C59.9312 81.7549 58.0685 79.0588 55.7155 76.902C55.4704 76.6569 55.7646 76.2647 56.0587 76.4118C57.7744 77.3432 59.8332 79.0098 61.4018 80.2353C63.1175 81.6569 64.8822 82.2451 66.892 82.8333C68.9018 83.4216 70.9606 83.8628 73.0195 84.0098C77.5783 84.353 82.4802 83.5196 86.1567 80.6765C87.1371 79.7451 87.4802 78.2745 87.8234 76.902C88.2646 75.0392 88.5097 73.0785 89.1469 71.2647C89.2449 70.9706 89.441 70.5784 89.5881 70.3824C90.7646 68.6177 91.843 66.7549 92.7253 64.8432C94.5391 60.9706 95.4704 56.7549 95.4704 52.4902C95.4704 50.3334 95.2744 48.1765 95.2253 46.0196C95.1763 42.7353 95.1273 39.451 95.4214 36.1667C95.5685 34.549 95.8136 33.0294 95.7646 31.4608C95.1273 25.8726 92.4802 20.3824 88.5587 16.3628C80.0783 7.73531 63.9999 5.28433 52.8724 9.40198C39.7351 14.3039 36.3038 27.5883 35.5685 40.2843C35.0783 47.8824 37.3822 55.3334 43.1175 60.5784L45.4214 62.9804C46.2057 63.8628 44.5391 65.1373 43.7548 63.9608Z" fill="black"/>
<path d="M49.539 48.3725C49.539 48.3725 48.0194 41.0196 40.8625 41.9019C34.686 42.6862 32.5292 57.4902 46.5488 61.6078" fill="white"/>
<path d="M45.912 55.1862C44.7846 54.549 44.0002 53.4706 43.9512 52.147C44.0002 51.1666 44.1473 50.0392 43.9022 49.0588C43.7551 48.1274 42.7748 47.8823 42.0395 47.9313C41.2551 48.0784 40.765 49.0588 40.6179 49.8431C40.6179 49.8921 40.5689 50.0392 40.5689 50.0882C40.5198 50.3333 40.1277 50.3333 40.0297 50.0882C39.3924 48.1764 40.814 46.0686 42.8728 46.3137C45.7649 46.5098 46.1571 49.549 45.6179 51.8529C45.3238 52.8333 45.7159 53.7157 46.2551 54.549L46.3532 54.696C46.5983 54.9902 46.2061 55.3823 45.912 55.1862ZM85.1282 43.1764C85.8635 46.6568 87.236 49.8921 88.9517 52.9313C90.4713 56.6568 86.5498 60.1862 83.0694 60.0392C82.6772 60.0392 82.6282 59.5 82.9713 59.4019C85.1772 58.7157 87.187 57.2451 87.5301 54.9902C87.6772 54.3039 87.4811 53.7157 87.138 53.1274C85.5203 50.0882 84.5399 46.6078 84.785 43.1764C84.785 42.9313 85.1282 42.9313 85.1282 43.1764Z" fill="black"/>
<path d="M49.2943 48.4216C48.1669 45.5294 45.7159 42.7843 42.4316 42.8333C42.1374 42.7843 41.6472 42.8824 41.3531 42.8824C40.5198 42.9314 39.8335 43.2255 39.1963 43.8137C36.059 46.951 36.5982 52.4902 39.1472 55.9706C40.0296 57.1961 41.1571 58.2745 42.4316 59.1569C43.7061 60.0392 45.1276 60.7255 46.6472 61.3137C46.9904 61.4118 46.8433 61.951 46.5002 61.902C43.2159 61.2157 40.0786 59.598 37.9218 56.902C34.5884 52.8824 33.9021 46.1667 37.8727 42.2451C38.7551 41.4608 39.9806 40.8726 41.2061 40.8726C41.5982 40.8726 42.1865 40.7745 42.5786 40.8726C44.6374 40.9706 46.5982 42 47.8727 43.6176C49.0002 44.9902 49.6374 46.6569 49.8335 48.3235C49.8335 48.6176 49.3923 48.7157 49.2943 48.4216Z" fill="black"/>
<path d="M98.6211 13.173C99.5035 11.1142 99.5035 8.85932 98.0329 6.89854C93.7682 1.26128 80.5819 5.52599 73.229 3.17305C62.1995 -0.405383 48.5231 -0.84656 40.4839 12.3887C38.4741 15.7221 37.4937 16.6534 34.6505 19.3005C31.7093 22.0456 29.4054 27.0946 29.2093 34.0064C28.7682 47.8789 39.6505 59.9377 39.6505 59.9377C40.1897 60.673 40.6799 61.3103 41.1211 61.8495C45.0427 66.5554 46.2682 75.624 45.0917 61.3103C32.8858 56.6044 35.0917 42.9279 41.0231 42.1927C47.2976 41.4083 49.2584 46.9966 49.6015 48.3691C53.8172 45.673 52.2976 39.9377 51.8074 34.5946C55.0917 33.124 57.8858 29.5946 59.3564 26.4083C60.974 28.6632 62.9348 30.4279 65.2878 30.624C67.7878 30.8691 69.2584 28.7613 69.7486 25.7711C72.9839 30.0358 78.7192 35.3299 87.7388 36.3593C92.0525 36.8495 95.6309 35.0358 98.0329 32.0456C98.6701 32.1436 99.2584 32.1927 99.8466 32.1436C106.17 31.5064 113.229 18.7123 98.6211 13.173Z" fill="black"/>
<path d="M66.8432 48.1765C65.6668 48.1275 64.7844 47.1471 64.8824 45.9706L64.9315 44.598C64.9805 43.4216 65.9609 42.5392 67.1373 42.6373C68.3138 42.6863 69.1962 43.6667 69.0981 44.8431L69.0491 46.2157C69.0001 47.3431 68.0197 48.2255 66.8432 48.1765ZM87.4805 48.9118C86.402 48.8628 85.5687 47.9314 85.6177 46.853L85.6668 45.5784C85.7158 44.5 86.6471 43.6667 87.7256 43.7157C88.804 43.7647 89.6373 44.6961 89.5883 45.7745L89.5393 47.049C89.4903 48.1275 88.5589 48.9608 87.4805 48.9118Z" fill="black"/>
<path d="M71.2546 45.5294C69.6369 44.451 67.8722 43.7157 65.9114 44.1078C65.2742 44.2059 64.6369 44.4019 64.2448 44.8431C64.0977 45.0392 63.7546 44.9902 63.7546 44.6961C63.8036 43.7157 64.6369 43.0784 65.4213 42.6863C66.9409 41.9019 69.0487 42.049 70.4213 43.0784C70.9115 43.3725 72.5781 45.1863 71.6958 45.5784C71.4997 45.6764 71.4016 45.6274 71.2546 45.5294ZM85.2742 45.7745C85.2742 43.7157 87.8232 42.9804 89.3918 43.7157C90.2742 44.1078 90.9114 44.8921 91.1565 45.8235C91.2546 46.1176 90.8134 46.3627 90.6173 46.1176C89.784 45.1372 88.3624 44.647 87.235 45.2353C86.8918 45.4314 86.8428 45.5784 86.7448 45.7745C86.7448 46.7549 85.3232 46.7059 85.2742 45.7745ZM73.6075 37.4412C74.6369 37.7843 75.6663 36.8529 75.4703 35.7255C75.3722 35.1372 75.1271 34.549 74.6369 34.1078C73.1663 32.7843 67.0879 31.6078 63.4115 33.3235C60.1762 34.8921 68.9016 35.8725 73.6075 37.4412ZM88.2649 38.2255C87.4316 38.5196 86.5492 37.6372 86.6963 36.6078C86.7453 36.0686 86.9414 35.5294 87.3335 35.1372C88.51 33.9608 92.5296 33.0294 95.0786 34.8431C97.2845 36.3627 92.0884 36.8039 88.2649 38.2255Z" fill="black"/>
<path d="M81.4016 64.9412C78.2644 67.9314 72.333 65.5294 70.7644 61.9019C70.5683 61.4608 71.0585 61.0686 71.4506 61.2647C72.284 61.7059 73.0193 62.147 73.8036 62.4902C76.0585 63.5196 78.4114 64.3529 80.9114 64.1078C81.4016 64.0098 81.7448 64.598 81.4016 64.9412Z" fill="black"/>
</g>
<defs>
<clipPath id="clip0_3537_30">
<rect width="128" height="128" fill="white"/>
</clipPath>
</defs>
</svg>
