<svg width="306" height="344" viewBox="0 0 306 344" fill="none" xmlns="http://www.w3.org/2000/svg">
<path d="M236.1 278.4C235.4 278.9 234.6 279.4 233.9 279.9C233.1 280.4 232.4 280.9 231.6 281.3C230.9 281.7 230.3 282.1 229.6 282.5C229.5 282.6 229.4 282.6 229.3 282.7C227 284.1 224.6 285.4 222.2 286.6C221.5 287 220.7 287.4 220 287.7C220 287.7 219.9 287.8 219.8 287.8L217.4 289C215.8 289.8 214.1 290.5 212.5 291.2C211.7 291.6 210.8 291.9 210 292.2C209.2 292.5 208.3 292.9 207.5 293.2C206.7 293.5 205.8 293.9 205 294.2H204.9C204.1 294.5 203.2 294.8 202.4 295.1C200.6 295.7 198.7 296.3 196.9 296.9C196.3 297.1 195.6 297.3 195 297.5C193.1 298.1 191.2 298.6 189.3 299C188.6 299.2 187.9 299.3 187.1 299.5C185.3 299.9 183.4 300.3 181.6 300.7C181.2 300.8 180.9 300.8 180.5 300.9C179.9 301 179.2 301.1 178.6 301.2C177.7 301.3 176.9 301.5 176 301.6C175.6 301.7 175.2 301.7 174.8 301.8C174.3 301.9 173.7 302 173.1 302C171.5 302.2 169.8 302.4 168.2 302.6C167.7 302.7 167.1 302.7 166.6 302.8H166.5C165.8 302.9 165.1 302.9 164.4 303C163.7 303.1 163 303.1 162.3 303.1C161.9 303.1 161.4 303.2 161 303.2C160.2 303.2 159.5 303.3 158.8 303.3C157.8 303.3 156.9 303.4 155.9 303.4H150.9C108.7 302.8 70.8002 284.9 43.7002 256.5C43.7002 256.5 43.7002 256.4 43.6002 256.4C40.6002 253.7 43.2002 239.3 55.3002 230.2C70.5002 218.7 106.9 211.5 106.9 211.5C106.9 211.5 121 209.2 173.3 220.1C203.9 226.5 227.2 235.8 240.2 261C242.9 266.2 245.6 274.2 236.1 278.4Z" fill="#fff0db"/>
<path d="M173.6 219C192.8 222.9 213.3 227.1 229.1 239.8C234.4 244.1 237.9 250.4 240.8 256.5C242.2 259.5 243.6 262.6 244.7 265.9C245.3 268.1 246.2 270.6 245.7 273.2C245.6 273.9 245 274.8 244.5 275.3C242.2 277.6 239.7 279 237.2 280.8C222.5 291 205.6 298.2 188.1 302C149.1 310.5 106.9 303.9 72.6002 283.4C61.2002 276.5 50.7002 268.1 41.7002 258.2C40.7002 257 40.7002 255 40.7002 253.7C40.8002 250.7 41.6002 247.8 42.6002 245.1C45.0002 238.9 48.1002 232.7 53.4002 228.4C57.2002 225.8 61.3002 223.6 65.5002 221.8C78.7002 216.2 92.6002 212.3 106.9 210.7C108.1 210.6 108.3 212.3 107.1 212.5C93.4002 215.3 79.8002 219.5 67.1002 225.2C62.5002 227.5 57.6002 229.5 53.9002 233.1C50.4002 236.9 47.9002 241.6 45.9002 246.4C44.6002 249.3 43.7002 253.9 44.1002 256.2C50.4002 263.7 57.8002 270.3 65.8002 276C109.6 306.6 176.1 308.6 222.7 283.1C226.9 280.8 231 278.2 234.9 275.5C236.8 274.2 238.8 273.1 240.3 271.6C240.4 271.5 240.3 271.6 240.3 271.7C240.3 271.8 240.2 271.9 240.2 271.9C240.3 270.7 239.9 269.1 239.4 267.5C237.6 261.7 234.7 255.6 231.6 250.3C226.7 242.4 218.4 237.4 210 233.4C204.2 230.7 198.1 228.6 191.9 226.6C185.7 224.6 179.4 222.9 173.1 221.4C171.5 221 172 218.7 173.6 219Z" fill="black"/>
<path d="M108.6 219.7C105.5 220 102.2 220.7 99.3998 222.3C99.0998 222.5 98.6998 222 98.9998 221.8C101.6 219.5 104.9 218.2 108.1 217.2C108.8 217 109.5 217.4 109.6 218.1C109.9 218.9 109.4 219.7 108.6 219.7ZM116.6 232.5C113 233.3 109.5 235 106.6 237.4C104.3 237.8 110.1 233.1 110.5 232.9C112.2 231.7 113.9 230.8 115.9 230C116.5 229.8 117.3 230.1 117.5 230.7C117.9 231.6 117.4 232.4 116.6 232.5ZM129.499 245.3C126.599 247.6 124.099 250.7 122.499 254.1C122.399 254.3 122.099 254.4 121.899 254.3C121.699 254.2 121.599 254 121.699 253.8C122.299 251.9 123.099 250 124.199 248.3C125.299 246.5 126.499 244.9 127.899 243.4C128.399 242.9 129.199 242.9 129.699 243.4C130.199 243.9 130.199 244.9 129.499 245.3ZM151.1 255.2C149.4 258.8 148.1 262.7 147.9 266.7C147.9 267.4 146.7 267.4 146.7 266.7C146.5 263.5 147 260.3 147.9 257.3C148.4 256.1 148.5 252.9 150.5 253.5C151.1 253.7 151.4 254.5 151.1 255.2ZM173.999 255.6C174.599 257 179.199 268.2 176.999 268.3C176.699 268.3 176.399 268.1 176.399 267.8C176.299 266.8 175.999 265.9 175.599 264.9C174.599 262.1 173.199 259.3 171.699 256.7C170.999 255.2 173.299 254 173.999 255.6ZM183.5 233.5C187.2 234.2 190.3 236.4 192.6 239.2C192.7 239.3 192.7 239.6 192.6 239.7C192.5 239.8 192.3 239.8 192.1 239.7C189.7 237.6 186.5 236.1 183.3 236C181.4 235.9 181.7 233.2 183.5 233.5ZM179.9 221.8C183 222.6 185.9 223.9 188.2 226.1C188.4 226.3 188.4 226.6 188.2 226.8C188 227 187.8 227 187.6 226.9C185.2 225.3 182.3 224.5 179.5 224.3C177.7 224.1 178.1 221.4 179.9 221.8ZM183.5 247.6C186.3 249.9 189.1 252.3 190.9 255.5C191 255.6 190.9 255.8 190.8 255.9C190.7 256 190.5 255.9 190.4 255.8C188.2 253.1 185.2 251.3 182.2 249.6C180.6 248.8 182 246.5 183.5 247.6Z" fill="black"/>
<path d="M183 245.6C180.9 255.9 167.3 262.1 144.4 252.8C120.6 243.2 110.3 220.3 107.7 213.5C121.8 187.1 112 168.8 112 168.8C144.5 166 172.9 204 172.9 204L177.3 222.8C177.7 224.4 178.5 225.8 179.7 226.8C181.8 230.5 184.3 239 183 245.6Z" fill="#fff0db"/>
<path d="M107.2 213.8C109.1 210.9 110.3 207.5 111.1 204.2C112.6 197.3 113.1 190.3 113.2 183.3V180.7C112.9 178.1 112 175.4 111 173C109.7 169.8 114.4 167.8 115.9 171C116.1 171.4 116.1 172.1 116.1 172.5C116.4 186.1 117 203.6 108.4 214.9C107.8 215.5 106.6 214.6 107.2 213.8ZM174 203.8C175.5 204.7 176 205.9 176.2 207.1C176.8 209.5 176.6 212.1 177.2 214.6C177.7 217 179.2 219.3 179.6 221.8C180.1 224.4 181.6 229.9 182.2 232.6C182.4 233.2 182 233.9 181.3 234C180.9 234.1 180.6 234 180.3 233.8C179 232.7 178.4 231.6 177.6 230.2C176.3 227.8 175.4 225.6 174.6 222.9C173.9 220.5 174.2 217.9 173.6 215.4C173.1 213 171.7 210.7 171.2 208.2C170.9 207 170.8 205.7 171.7 204.2C172.3 203.6 173.3 203.4 174 203.8Z" fill="black"/>
<path d="M181.2 230.2C162.1 229.2 146.5 223.2 131.3 196.1C144.1 207.4 159.2 211.7 175.1 213.7L177.2 222.9C177.6 224.5 180 229.2 181.2 230.2Z" fill="black"/>
<path d="M180.401 226.5C183.801 232.9 185.801 240.9 183.701 248C182.101 253 177.501 256.7 172.501 258.1C160.901 261.2 147.501 256.3 137.201 250.8C124.501 243.7 115.101 231.8 109.101 218.8C108.701 217.8 110.101 217 110.701 218C112.801 222.2 115.201 226.3 117.901 230C120.601 233.8 123.701 237.3 127.201 240.4C137.401 249.6 151.201 255.3 165.001 255.3C179.201 254.9 184.601 247.4 181.301 233.6C180.801 231.4 180.001 229.1 178.901 227.2C178.301 226.4 179.801 225.5 180.401 226.5Z" fill="black"/>
<path d="M219.101 106.4C220.901 114.8 217.401 118.6 217.401 141.1C217.401 152.4 218.401 159.6 215.101 173.3C213.601 179.6 208.901 187.3 205.701 193.1C202.501 198.9 204.601 208.6 199.201 213.1C183.001 226.6 163.401 222.8 145.601 211.4C144.901 211 141.001 206.4 139.801 205.5C135.701 202.4 128.901 199.1 126.901 197.1C121.301 191.6 125.501 181.9 122.101 176.2C117.701 168.9 112.401 174.8 106.701 168.5C98.8011 159.9 89.3011 142.6 94.0011 112C101.601 62.4 140.901 56.6 170.001 62.1C199.301 67.7 214.301 84.3 219.101 106.4Z" fill="#fff0db"/>
<path d="M111.7 177.4C109.4 173.6 106.5 170.3 103.8 166.7C99.8 161.2 96.8 155.1 94.8 148.7C86.2 121.2 90.9 85.4 116.5 68.4C139.9 52.6 185.4 57.6 205.7 77.1C214.7 85.2 223.4 102.1 221.5 114.3C219.8 123 218.3 131.6 218.6 140.5C218.6 144.9 219.1 149.3 219.1 153.8C219.4 162.8 217.8 171.9 214.4 180.3C212.7 184.5 210.6 188.5 208.3 192.4C207.9 193 207.6 193.9 207.4 195C206.6 198.2 206.2 201.4 205.5 204.7C204.7 208.2 203.8 212.2 200.8 214.8C192.5 221.5 181.4 223.5 171.1 222.7C163.9 222.1 156.9 220.2 150.4 217.1C144.7 213.7 140.9 208.2 136.1 203.8C135.6 203.3 136.2 202.5 136.8 202.8C140.3 204.7 144.5 208.1 147.7 210.6C151.2 213.5 154.8 214.7 158.9 215.9C163 217.1 167.2 218 171.4 218.3C180.7 219 190.7 217.3 198.2 211.5C200.2 209.6 200.9 206.6 201.6 203.8C202.5 200 203 196 204.3 192.3C204.5 191.7 204.9 190.9 205.2 190.5C207.6 186.9 209.8 183.1 211.6 179.2C215.3 171.3 217.2 162.7 217.2 154C217.2 149.6 216.8 145.2 216.7 140.8C216.6 134.1 216.5 127.4 217.1 120.7C217.4 117.4 217.9 114.3 217.8 111.1C216.5 99.7 211.1 88.5 203.1 80.3C185.8 62.7 153 57.7 130.3 66.1C103.5 76.1 96.5 103.2 95 129.1C94 144.6 98.7 159.8 110.4 170.5L115.1 175.4C116.7 177.2 113.3 179.8 111.7 177.4Z" fill="black"/>
<path d="M123.5 145.6C123.5 145.6 120.4 130.6 105.8 132.4C93.1999 134 88.7999 164.2 117.4 172.6" fill="#fff0db"/>
<path d="M116.1 159.5C113.8 158.2 112.2 156 112.1 153.3C112.2 151.3 112.5 149 112 147C111.7 145.1 109.7 144.6 108.2 144.7C106.6 145 105.6 147 105.3 148.6C105.3 148.7 105.2 149 105.2 149.1C105.1 149.6 104.3 149.6 104.1 149.1C102.8 145.2 105.7 140.9 109.9 141.4C115.8 141.8 116.6 148 115.5 152.7C114.9 154.7 115.7 156.5 116.8 158.2L117 158.5C117.5 159.1 116.7 159.9 116.1 159.5ZM196.101 135C197.601 142.1 200.401 148.7 203.901 154.9C207.001 162.5 199.001 169.7 191.901 169.4C191.101 169.4 191.001 168.3 191.701 168.1C196.201 166.7 200.301 163.7 201.001 159.1C201.301 157.7 200.901 156.5 200.201 155.3C196.901 149.1 194.901 142 195.401 135C195.401 134.5 196.101 134.5 196.101 135Z" fill="black"/>
<path d="M123 145.7C120.7 139.8 115.7 134.2 109 134.3C108.4 134.2 107.4 134.4 106.8 134.4C105.1 134.5 103.7 135.1 102.4 136.3C96 142.7 97.1 154 102.3 161.1C104.1 163.6 106.4 165.8 109 167.6C111.6 169.4 114.5 170.8 117.6 172C118.3 172.2 118 173.3 117.3 173.2C110.6 171.8 104.2 168.5 99.8 163C93 154.8 91.6 141.1 99.7 133.1C101.5 131.5 104 130.3 106.5 130.3C107.3 130.3 108.5 130.1 109.3 130.3C113.5 130.5 117.5 132.6 120.1 135.9C122.4 138.7 123.7 142.1 124.1 145.5C124.1 146.1 123.2 146.3 123 145.7Z" fill="black"/>
<path d="M223.627 73.793C225.427 69.593 225.427 64.993 222.427 60.993C213.727 49.493 186.827 58.193 171.827 53.393C149.327 46.093 121.427 45.193 105.027 72.193C100.927 78.993 98.9271 80.893 93.1271 86.293C87.1271 91.893 82.4271 102.193 82.0271 116.293C81.1271 144.593 103.327 169.193 103.327 169.193C104.427 170.693 105.427 171.993 106.327 173.093C114.327 182.693 116.827 201.193 114.427 171.993C89.5271 162.393 94.0271 134.493 106.127 132.993C118.927 131.393 122.927 142.793 123.627 145.593C132.227 140.093 129.127 128.393 128.127 117.493C134.827 114.493 140.527 107.293 143.527 100.793C146.827 105.393 150.827 108.993 155.627 109.393C160.727 109.893 163.727 105.593 164.727 99.493C171.327 108.193 183.027 118.993 201.427 121.093C210.227 122.093 217.527 118.393 222.427 112.293C223.727 112.493 224.927 112.593 226.127 112.493C239.027 111.193 253.427 85.093 223.627 73.793Z" fill="black"/>
<path d="M158.8 145.2C156.4 145.1 154.6 143.1 154.8 140.7L154.9 137.9C155 135.5 157 133.7 159.4 133.9C161.8 134 163.6 136 163.4 138.4L163.3 141.2C163.2 143.5 161.2 145.3 158.8 145.2ZM200.9 146.7C198.7 146.6 197 144.7 197.1 142.5L197.2 139.9C197.3 137.7 199.2 136 201.4 136.1C203.6 136.2 205.3 138.1 205.2 140.3L205.1 142.9C205 145.1 203.1 146.8 200.9 146.7Z" fill="black"/>
<path d="M167.8 139.8C164.5 137.6 160.9 136.1 156.9 136.9C155.6 137.1 154.3 137.5 153.5 138.4C153.2 138.8 152.5 138.7 152.5 138.1C152.6 136.1 154.3 134.8 155.9 134C159 132.4 163.3 132.7 166.1 134.8C167.1 135.4 170.5 139.1 168.7 139.9C168.3 140.1 168.1 140 167.8 139.8ZM196.4 140.3C196.4 136.1 201.6 134.6 204.8 136.1C206.6 136.9 207.9 138.5 208.4 140.4C208.6 141 207.7 141.5 207.3 141C205.6 139 202.7 138 200.4 139.2C199.7 139.6 199.6 139.9 199.4 140.3C199.4 142.3 196.5 142.2 196.4 140.3ZM172.6 123.3C174.7 124 176.8 122.1 176.4 119.8C176.2 118.6 175.7 117.4 174.7 116.5C171.7 113.8 159.3 111.4 151.8 114.9C145.2 118.1 163 120.1 172.6 123.3ZM202.501 124.9C200.801 125.5 199.001 123.7 199.301 121.6C199.401 120.5 199.801 119.4 200.601 118.6C203.001 116.2 211.201 114.3 216.401 118C220.901 121.1 210.301 122 202.501 124.9Z" fill="black"/>
<path d="M188.5 179.4C182.1 185.5 170 180.6 166.8 173.2C166.4 172.3 167.4 171.5 168.2 171.9C169.9 172.8 171.4 173.7 173 174.4C177.6 176.5 182.4 178.2 187.5 177.7C188.5 177.5 189.2 178.7 188.5 179.4Z" fill="black"/>
</svg>
